<?xml version="1.0" encoding="UTF-8"?>
<svg id="Layer_2" data-name="Layer 2" xmlns="http://www.w3.org/2000/svg" viewBox="0 0 112.89 113.66">
  <defs>
    <style>
      .cls-1 {
        fill: #fff;
      }
    </style>
  </defs>
  <g id="Layer_1-2" data-name="Layer 1">
    <g>
      <path class="cls-1" d="M56.3.03h1.27c2.6-.17,5.14.58,7.69.81.17,0,.29.12.46.17.4.17.69.23.4.92-.52,1.21-.81,2.49-1.16,3.76-.23.81-.52,1.62-.81,2.43-.17.52-.06.75.46.92,2.31.64,4.51,1.5,6.7,2.49,1.5.69,2.95,1.56,4.39,2.43.46.29.64.17.92-.12,1.33-1.56,2.89-2.95,4.16-4.62.64-.87.75-.87,1.62-.17,2.37,1.85,4.45,4.04,6.36,6.36.58.69,1.21,1.45,1.85,2.14.29.35.29.46-.06.75-1.73,1.33-3.47,2.66-5.14,4.04-.46.35-.52.64-.17,1.21,1.04,1.79,2.02,3.58,2.89,5.49.58,1.27,1.16,2.54,1.45,3.93.12.52.64.35.92.29,2.14-.29,4.33-.58,6.47-.69.58-.06.69.46.75.81.23,2.31.81,4.57.87,6.94,0,1.39,0,2.77.12,4.16.06.64-.23.81-.81.81-2.08,0-4.1-.35-6.18-.35-.64,0-.81.17-.92.81-.46,3.01-1.16,5.95-2.08,8.9-.17.52-.52.98-.64,1.5-.12.46-.17.64.35.98,1.91,1.04,3.87,2.02,5.84,3.06.52.29.58.58.29,1.04-1.45,2.37-2.89,4.8-4.57,6.99-.81,1.1-1.73,2.08-2.6,3.12-.23.29-.4.35-.75.06-1.45-1.27-2.89-2.49-4.33-3.7-.4-.35-.98-.35-1.27-.87-.12-.17-.4,0-.52.17-1.68,1.85-3.7,3.24-5.78,4.62-.87.58-1.79,1.1-2.72,1.62-.46.23-.58.4-.23.87,1.21,1.79,2.31,3.58,3.53,5.37.35.46.23.64-.23.92-1.5.81-3.18,1.39-4.8,2.02-2.37.92-4.8,1.33-7.28,1.91-.4.12-.64,0-.69-.52-.06-1.1-.12-2.25-.35-3.35-.17-.98-.12-1.91-.12-2.89,0-.64-.23-1.04-.98-.98-1.68.23-3.41,0-5.09.17-1.79.23-3.47-.23-5.2-.23-.17,0-.35-.12-.52-.17-.75-.29-.98-.12-1.04.69-.12,1.21-.46,2.37-.75,3.58-.17.81-.4,1.62-.52,2.43-.06.58-.4.75-.92.64-1.91-.4-3.76-1.04-5.61-1.73-2.43-.92-4.62-2.25-6.99-3.3-.46-.23-.58-.58-.23-1.1,1.39-1.73,2.72-3.53,4.04-5.32.23-.29.06-.46-.12-.58-.69-.52-1.39-1.04-2.08-1.62-1.39-1.1-2.77-2.14-4.04-3.35-.75-.75-1.5-1.5-2.14-2.37-.17-.23-.35-.23-.58-.06-1.27.98-2.54,1.97-3.82,2.89-.58.4-1.1.87-1.62,1.33-.35.29-.46,0-.64-.17-.75-.87-1.45-1.85-2.02-2.83-.98-1.73-1.97-3.47-2.95-5.2-.46-.81-.58-1.68-1.16-2.43-.17-.17.12-.46.4-.64.92-.46,1.79-.98,2.72-1.33,1.21-.52,2.37-1.21,3.58-1.73.46-.23.35-.64.23-.92-1.04-2.31-1.04-4.85-1.5-7.28-.17-.81-.17-1.73-.06-2.6.06-.46-.17-.81-.64-.75-1.5.06-2.95.17-4.45.23-.87.06-1.68.06-2.54.06-.46,0-.46-.4-.4-.69.29-.87.12-1.79.23-2.72.17-1.21.29-2.49.52-3.7.35-2.2.87-4.28,1.45-6.42.12-.46.35-.87.4-1.33s.46-.58.81-.35c1.85.98,3.82,1.56,5.66,2.49.46.23.69.23.98-.35,1.27-2.66,2.6-5.26,4.33-7.63.64-.81,1.33-1.62,2.02-2.37.4-.4.4-.69,0-1.1-1.56-1.5-3.12-3.01-4.8-4.45-.4-.35-.35-.64-.06-.92,2.02-1.91,4.04-3.76,6.3-5.37.87-.64,1.79-1.21,2.72-1.79.46-.29.87-.58,1.27.29.98,1.79,2.02,3.53,3.01,5.32.29.58.69.69,1.27.35,2.31-1.33,4.85-2.2,7.4-2.89,1.21-.35,2.49-.81,3.82-.75.4,0,.58-.17.46-.58-.46-1.91-.98-3.76-1.1-5.72,0-.35-.23-.64-.35-.92-.17-.58.12-.64.58-.81,1.8-.82,3.48-.3,5.15-.47ZM57.46,30.31c.06-.29.06-.4.06-.52-.12-1.16-.35-2.25-.52-3.35-.17-1.21-.29-2.54-1.56-3.24-.29-.17-.4-.46-.46-.75-.06-.4-.17-.75-.35-1.1-.75-1.39-.64-2.83-.35-4.22.12-.4.4-.87.87-.98.52-.12.52.35.75.64.17.29.4.35.58,0,.35-.46.75-.92.92-1.5.06-.23.29-.46.58-.4.12,0,.29.12.23.23-.12.23-.17.52.12.58s.4-.35.58-.58c.29-.4.46-.87-.23-.92-1.85-.06-3.76-.17-5.61.06-2.08.23-4.1.81-6.07,1.5-2.49.92-4.8,2.14-6.94,3.7-2.25,1.56-4.1,3.58-5.84,5.66-1.39,1.68-2.49,3.58-3.35,5.55-.81,1.68-1.33,3.47-1.79,5.26-.4,1.39-.58,2.72-.69,4.1-.12,1.68,0,3.41-.06,5.09,0,.69.29.81.87.69,2.14-.58,4.28-1.1,6.42-1.62,2.89-.69,5.72-1.56,8.61-2.2.75-.17,1.45-.4,2.14-.58.35-.12.46-.35.4-.69-.12-.58-.29-1.21-.46-1.79-.35-1.39-.64-2.83-.98-4.22-.35-1.56-.64-3.18-1.04-4.74-.29-1.39-.52-2.72.06-4.04.12-.35,0-.64-.23-.87-.75-.81-1.16-1.91-1.91-2.72-.46-.58-.46-1.27-.35-1.97.12-.69,1.1-1.16,1.73-.92.46.17.87.46,1.16.87.64.87,1.27,1.73,1.85,2.66.4.64.87.87,1.56.81.69-.06,1.39,0,1.91.46,1.33,1.1,2.66,2.25,3.99,3.35,1.15.8,2.25,1.73,3.4,2.71ZM32.49,46.09c-.98.12-1.91.23-2.77.23-1.16-.06-1.21.06-1.1,1.16,0,.17.06.35.12.52.35,1.04.64,2.14.92,3.18.69,2.6,1.97,4.97,3.41,7.17,1.68,2.54,3.87,4.68,6.36,6.59,3.24,2.54,6.88,3.99,10.75,5.03.81.23,1.62.23,2.49.35.46.06.64-.23.46-.58-.4-.98-.29-2.02-.69-3.01-.52-1.33-.46-1.33-1.91-1.33h-7.11c-.52,0-.98-.06-1.5-.06-.23,0-.46.12-.64-.12-.23-.23.06-.46.17-.64.69-1.16,1.45-2.25,2.08-3.47,1.5-2.6,3.01-5.2,4.57-7.74.4-.64,1.04-1.21.92-2.02-.17-1.97-.75-3.87-1.21-5.84-.06-.23-.17-.46-.46-.4-1.68.23-3.41.29-5.14.4-3.3.23-6.53.58-9.71.58ZM84.56,41.81c-.06-.75-.06-1.62-.12-2.54-.23-2.31-.81-4.51-1.62-6.65-1.1-2.95-2.66-5.66-4.62-8.15-2.08-2.66-4.62-4.74-7.51-6.47-.75-.46-.81-.4-.81.52v21.56c0,.4.12.75.4,1.04,1.85,1.62,3.87,3.12,5.66,4.8.46.4,1.04.46,1.62.29,1.91-.58,3.82-1.16,5.72-1.56q1.27-.29,1.27-1.56c0-.35,0-.75,0-1.27ZM55.78,64.01h12.08c.4,0,.69-.17.64-.58-.23-1.5-.12-3.01-.06-4.45,0-2.08-.17-4.16.12-6.18.06-.35-.12-.46-.46-.35-1.39.64-2.77,1.21-4.16,1.85-.35.12-.35.35-.35.69v2.95c0,.98-.17,1.1-1.1,1.1-2.37,0-4.68.06-7.05,0-1.73-.06-3.35.06-4.85,1.04-.17.12-.29.12-.46,0-.17-.17,0-.23.06-.4.81-1.73,1.68-3.47,2.49-5.26,1.21-2.66,2.43-5.37,3.64-8.03.81-1.68.58-1.39-.87-1.45-.58,0-.98.06-1.27.69-.75,1.45-1.62,2.83-2.49,4.22-1.1,1.79-2.14,3.58-3.24,5.37-1.62,2.66-3.18,5.37-4.74,8.09-.12.17-.35.4-.29.58.12.29.46.17.69.17,3.93-.06,7.8-.06,11.68-.06ZM40.35,44.24c0,.06,0,.12.06.17h.58c2.08-.12,4.16-.17,6.24-.29,1.56-.12,3.12-.12,4.68-.35,2.08-.29,4.16.06,6.24-.29.58-.12.69.23.46.75-1.39,2.95-2.77,5.89-4.1,8.84-.58,1.27-1.16,2.6-1.73,3.87-.06.17-.29.4-.06.58.12.12.35.06.52-.06,1.45-.69,2.95-1.27,4.39-1.91,1.56-.69,3.12-1.45,4.74-2.08,2.2-.87,4.33-1.91,6.53-2.72,1.45-.58,2.83-1.33,4.39-1.73.17-.06.4-.12.35-.35-.06-.23-.35-.17-.46-.12-1.1.29-2.14.64-3.24.92-1.91.46-3.76,1.04-5.66,1.5-1.1.23-2.2.64-3.3.81-.23.06-.58.23-.81-.06-.23-.29.06-.58.17-.87.46-1.16,1.04-2.25,1.5-3.35,1.21-2.95,2.37-5.89,3.76-8.84.12-.23.12-.4,0-.58-.12-.23-.35-.06-.46-.06-2.31.58-4.62,1.1-6.94,1.68-1.79.46-3.53.92-5.32,1.39-1.62.4-3.3.81-4.97,1.21-2.08.46-4.04,1.1-6.18,1.45-.46.12-.92.29-1.39.46ZM68.9,66.09c.06.4.06,1.04.4,1.27.4.29.75-.29,1.1-.52.12-.06.17-.12.29-.12,2.66-1.5,4.91-3.53,6.94-5.72,1.97-2.2,3.47-4.74,4.68-7.46.23-.46.23-.81-.23-1.1-1.45-.92-2.89-1.85-4.28-2.83-.92-.64-1.68-.75-2.77-.23-1.39.69-2.77,1.39-4.28,1.79-.69.23-.98.64-.98,1.5.12,3.82.06,7.63.06,11.44,0,.46-.06,1.04-.58,1.16-.41.23-.35.46-.35.81ZM68.73,21.24c-.81.4-.92,1.16-1.27,1.73-1.04,1.62-1.97,3.3-2.95,4.91-1.04,1.68-2.02,3.41-3.01,5.14-.92,1.5-1.73,3.06-2.72,4.51-.12.17-.29.4-.12.58.17.23.35,0,.58,0,.98-.06,1.85-.46,2.77-.69,1.79-.4,3.53-.87,5.32-1.33.17-.06.29-.12.4,0,.12.12,0,.29-.06.4-.29.64-.58,1.33-.87,1.97-.87,2.08-1.79,4.1-2.6,6.24-.23.69-.81,1.27-.75,2.08.06.69.06,1.45,0,2.14-.06.64.23.69.75.58,1.1-.29,2.2-.69,3.35-.87.87-.12.98-.52.98-1.21v-16.13c0-.81.12-1.62.12-2.43.06-1.56-.06-3.18-.12-4.74,0-.87.12-1.79.18-2.89ZM56.36,70.65c1.56,0,3.12-.23,4.62-.46,2.43-.29,4.68-1.1,6.94-2.08.58-.23.75-.46.4-1.04-.17-.29-.29-.69-.35-1.1-.12-.64-.52-.69-.98-.64-.29,0-.58.06-.87.06h-9.54c-.58,0-1.16.06-1.73-.12-.29-.06-.87,0-.75.58.23,1.04.23,2.08.23,3.12q.06,1.62,1.68,1.62c.12.06.23.06.35.06ZM62.08,24.07c.17,1.16.35,2.31.52,3.47.06.23-.12.64.12.69.35.12.46-.35.64-.58.81-1.39,1.62-2.77,2.43-4.16,1.1-1.85,2.2-3.7,3.3-5.55.17-.35.4-.69-.17-.92-1.27-.52-2.49-1.04-3.76-1.56-.64-.23-1.04-.06-1.21.64-.23,1.1-.35,2.2-.35,3.3-.06,1.16.12,2.37-.81,3.35-.4.34-.92.63-.69,1.32ZM59.42,34.18c0-.35-.17-.52-.35-.64-1.1-.64-1.68-1.79-2.66-2.54-1.56-1.21-3.12-2.49-4.51-3.82-.12-.12-.23-.17-.4-.12-.23.06-.17.29-.12.4.4,1.21-.12,2.14-.92,2.95-.29.29-.23.4.06.58,2.49,1.56,4.91,3.12,7.4,4.68.17.12.4.35.52.12.4-.58.69-1.15.98-1.62ZM50.46,39.73c-.17-1.68-.35-3.12-.52-4.51-.12-1.21-.23-2.43-.35-3.64-.06-.4-.23-.46-.58-.4-.92.23-1.85.17-2.66-.4-.12-.12-.29-.17-.4-.06-.17.12-.12.29-.06.46.46,1.73.81,3.53,1.16,5.26.23,1.1.46,2.2.69,3.3.23,1.04.4,1.21,1.45.92.17-.06.29-.06.46-.06.63-.11.98-.4.81-.87ZM52.14,39.96c1.16-.29,2.31-.69,3.47-.92.87-.17,1.39-.58,1.79-1.27.35-.58.29-.87-.35-1.21-1.85-1.1-3.58-2.31-5.37-3.47-.12-.12-.23-.29-.46-.17-.17.12-.17.29-.12.52.29.92.06,1.91.23,2.83.23,1.1.23,2.2.35,3.35,0,.35.17.4.46.35ZM84.39,46.15c0-.58-.17-.64-.69-.46-.58.23-1.16.58-1.73.81-1.04.35-2.02.81-3.06,1.21-.4.17-.52.35-.12.64.35.23.69.52,1.04.81.87.81,1.91,1.39,2.6,2.31.12.17.17.35.4.29.17-.06.23-.23.29-.4.23-.92.52-1.85.75-2.83.23-.76.4-1.62.52-2.37ZM60.35,25.4c-.4.06-.81.17-1.21.17-.87.06-1.04.35-.92,1.21.12.75.4,1.5.46,2.25.06.69.17,1.45.29,2.14s.75,1.04,1.27,1.27c.46.17.35-.58.64-.75.12-.06.23-.23.29-.35.17-.46.69-.87.46-1.45-.46-1.21-.23-2.54-.46-3.76-.06-.52-.23-.81-.81-.75ZM59.36,57.71h2.25c.29,0,.52-.06.52-.4v-1.79c0-.35-.12-.52-.46-.35-1.62.81-3.35,1.45-5.03,2.14-.17.06-.52.12-.46.35.06.29.4.29.58.23.92-.29,1.85-.12,2.6-.18ZM73.47,47.01c0-.12-.06-.17-.17-.23-.98-.58-1.97-1.16-2.89-1.85-.12-.12-.35-.12-.52,0s-.12.29-.12.46c.12.64.12,1.33,0,1.97-.06.58.17.64.69.64.92-.06,1.68-.69,2.6-.58.29,0,.4-.17.4-.4ZM49.94,45.16q-.98,0-.81.92c.17.81.58,1.56.52,2.43,0,.29.17.58.29.87.06.23.35.29.4.17.29-.64.98-1.1.87-1.85-.06-.46-.12-.92-.12-1.39q-.06-1.16-1.16-1.16ZM60.98,17.08c-.35.17-.46.35-.46.58-.06.35-.06.69-.17.98-.06.23-.12.52-.4.52-.29.06-.4-.23-.52-.46-.17-.35-.12-.64-.12-.98,0-.23-.06-.4-.35-.4s-.29.17-.29.35v1.16q0,1.62,1.62,1.27c.52-.12.87-.35.81-.98-.12-.58-.12-1.27-.12-2.02ZM43.3,20.72c-.23.12-.4.23-.17.58.64.98,1.27,1.97,1.91,2.89.17.29.46.29.69.12.35-.23.12-.46-.06-.64-.64-.87-1.27-1.73-1.91-2.66-.06-.17-.17-.35-.46-.29ZM48.15,29.1c.64,0,1.16-.46,1.16-1.1,0-.69-.52-1.27-1.16-1.27-.52,0-1.21.69-1.21,1.21,0,.64.52,1.16,1.21,1.16ZM60.23,21.29c-.35.17-.81.12-1.27.23-.35.06-.4.35-.35.64.06.4.29.29.58.23.4-.06.87-.12,1.27-.17.4,0,.4-.29.4-.58,0-.41-.29-.29-.64-.35ZM72.66,45.05c0-.17.06-.29,0-.29-.87-.75-1.68-1.45-2.54-2.14-.12-.12-.23-.06-.35.06-.17.17-.06.35.06.46.87.75,1.79,1.33,2.83,1.91ZM57.69,19.91c-.17-.4-.12-.92-.17-1.45,0-.17-.06-.4-.29-.4s-.23.23-.35.35c-.4.64.29,1.1.17,1.62-.06.23.06.52.35.46.29,0,.29-.23.29-.58ZM55.14,19.5c.12.29.29.69.46,1.04.06.17.23.17.4.12.17-.06.17-.29.12-.4-.12-.35-.29-.69-.46-1.04-.06-.12-.17-.29-.35-.23-.23.06-.12.29-.17.52ZM60.75,14.36c-.4,0-.69,0-.64.46,0,.23.12.64.35.58.35-.12.69-.4.75-.81,0-.29-.35-.17-.46-.23ZM56.47,21.81c-.29,0-.58.06-.52.35.12.29.35.58.75.58.29,0,.35-.17.29-.4,0-.29-.12-.64-.52-.52ZM62.25,15.34c0,.23-.06.52.29.46.4,0,.64-.23.64-.64.06-.35-.23-.29-.46-.35-.29,0-.52.11-.46.52ZM52.77,45.28c0-.12.06-.4-.17-.35s-.46.23-.46.58c0,.23,0,.46.29.46.23-.12.4-.35.35-.69Z"/>
      <path class="cls-1" d="M43.41,102.39c-.46-.4-.92-.52-1.33-.58-1.33-.12-2.54-.69-3.82-1.04-2.08-.58-4.16-1.27-6.07-2.25-2.2-1.1-4.45-2.2-6.59-3.47-1.91-1.1-3.47-2.54-5.09-3.99-.98-.92-2.02-1.79-2.72-3.01-.58-.98-.81-1.97-.12-2.95.23-.35,0-.52-.17-.69-.92-.92-1.85-1.85-2.77-2.77-2.54-2.6-4.74-5.49-6.53-8.61-1.27-2.25-2.49-4.62-3.53-6.99-.87-2.02-1.56-4.1-2.2-6.24-.64-1.97-.98-3.99-1.39-6.01-.35-1.91-.4-3.87-.64-5.78-.17-1.68-.52-3.3-.46-4.97.06-1.62.29-3.24.52-4.8.12-.87.29-1.68.29-2.54,0-1.39.46-2.72.64-4.04.17-1.5.81-2.89.98-4.39.06-.58.52-.98.52-1.62,0-.23.35-.17.58.06,1.16,1.21,2.31,2.37,3.47,3.58.4.4.75.4,1.16.17,1.79-1.04,3.7-1.91,5.43-3.01.12-.12.29-.17.4-.06.12.12.06.35,0,.52-.58,1.73-1.1,3.47-1.56,5.26-.52,2.08-.87,4.16-1.16,6.3-.29,2.31-.46,4.62-.4,6.94.06,1.97.29,3.93.58,5.89.29,1.85.69,3.7,1.16,5.49.64,2.31,1.45,4.57,2.54,6.7.75,1.45,1.45,2.95,2.37,4.33,1.33,2.14,2.83,4.16,4.39,6.07,1.27,1.56,2.95,2.77,4.1,4.57.75,1.1,1.21,2.37,1.45,3.64.12.52,0,1.04-.29,1.5-.35.46-.17.87.29,1.16,2.72,1.85,5.61,3.41,8.61,4.62,2.6,1.04,5.26,1.85,8.03,2.54,2.2.52,4.45.69,6.65,1.16,1.68.35,3.41.23,5.09.23h3.64c1.62.06,3.18-.29,4.74-.46,2.08-.29,4.04-.69,6.07-1.27,1.91-.52,3.76-1.21,5.61-1.97,2.37-.98,4.62-2.14,6.76-3.58.64-.4,1.21-.87,1.85-1.27.35-.23.4-.58.17-.92-.58-.81-.46-1.56-.12-2.43.81-2.25,2.37-3.99,4.04-5.61,1.39-1.33,2.66-2.72,3.87-4.22,1.39-1.68,2.6-3.53,3.7-5.43,1.1-1.79,1.97-3.7,2.66-5.72.4-1.16.87-2.25,1.27-3.35.52-1.5.69-3.12,1.04-4.68.75-3.18.87-6.42.75-9.65-.06-1.97-.17-3.93-.52-5.84-.4-2.43-.92-4.8-1.56-7.17-.35-1.27-.64-2.66-1.33-3.87-.12-.17-.06-.35,0-.58,1.45.92,2.83,1.79,4.22,2.66.64.4,1.27.81,1.91,1.21.4.23.69.29,1.16-.06,1.04-.81,2.02-1.73,2.95-2.72.58-.58.81-.58,1.1.17.75,2.2,1.62,4.33,1.91,6.7.12.81.29,1.68.52,2.49.81,3.76.69,7.57.52,11.33-.12,2.31-.4,4.68-.98,6.99-.4,1.73-.69,3.47-1.21,5.2-.52,1.91-1.27,3.76-1.91,5.61-.52,1.56-1.16,3.06-1.91,4.57-1.04,2.08-2.14,4.1-3.41,6.07-2.08,3.18-4.57,5.95-7.28,8.55-.4.4-.58.69-.17,1.16.29.29.23.69.12.98-.75,2.08-2.02,3.82-3.7,5.2-2.08,1.73-4.28,3.3-6.65,4.57-1.45.75-2.83,1.5-4.39,2.14-1.33.52-2.6,1.04-3.93,1.56-2.49.92-4.97,1.68-7.57,2.2-.35.06-.69.12-1.1.46h27.16c1.1,0,1.04,0,.87,1.04-.06.23,0,.46,0,.69v8.55q0,1.04-1.04,1.04H17.98c-1.1,0-.98,0-1.16-1.16-.17-1.45-.06-2.95-.12-4.39-.06-1.68,0-3.35,0-5.03,0-.69.4-.81,1.04-.81h24.97c.23.11.41.11.7.11ZM79.71,112.5h15.32c.35-.06.64-.29.52-.64-.23-.87-.12-1.73-.12-2.6.06-1.68-.17-3.35.12-5.03.06-.4-.23-.64-.69-.64h-16.99c-1.68,0-3.35.06-5.09.12-1.21.06-2.49-.06-3.7-.12-1.97-.06-3.93.06-5.95.06-1.45,0-2.95,0-4.39-.06-2.02-.06-4.04-.06-6.07.06-1.85.12-3.76.06-5.66-.12-.98-.06-1.91.12-2.89.12-1.39.06-2.77-.17-4.22,0-.75.06-1.5-.29-2.25-.12-1.21.35-2.43.06-3.64.12-4.74.12-9.54.06-14.28.06-.23,0-.46.06-.69,0-.69-.17-.92.12-.92.81v4.45c0,.92,0,1.85-.06,2.77-.06.64.17.98.81.92s1.33-.12,1.97-.12h17.63c1.85,0,3.7.12,5.55.06,1.56,0,3.18.06,4.74-.06,1.5-.06,3.06,0,4.62.06,1.45.06,2.95,0,4.45-.06,2.49-.06,4.97,0,7.46,0,4.85-.06,9.65-.06,14.45-.06ZM56.24,102.27c.92-.12,2.08-.06,3.24-.12,2.72-.12,5.43-.46,8.09-.98,1.85-.35,3.64-.64,5.43-1.21s3.58-1.21,5.37-1.91c2.95-1.16,5.84-2.43,8.55-4.16,2.43-1.5,4.85-3.06,6.59-5.43,1.73-2.31,1.45-3.3-.12-4.74-.98-.92-2.14-1.62-3.18-2.49-.35-.29-.64-.23-.92.06-.4.4-.87.81-1.33,1.21-.46.4-1.21.81-1.27,1.45s-.4.92-.81,1.21c-.87.69-1.73,1.27-2.66,1.91-2.08,1.45-4.33,2.49-6.59,3.58-1.39.64-2.83,1.16-4.28,1.62-2.37.69-4.8,1.33-7.28,1.68-1.5.23-3.06.52-4.57.52-3.01.06-6.01.23-8.96-.12-1.91-.23-3.82-.4-5.72-.75-1.85-.35-3.64-.81-5.49-1.33-1.68-.52-3.3-1.16-4.91-1.79-3.41-1.33-6.53-3.24-9.48-5.37-.52-.4-.64-1.04-1.27-1.39-.75-.4-1.39-1.04-1.97-1.62-.4-.4-.64-.4-1.04,0-1.1,1.1-1.97,2.31-2.83,3.58-.52.75-.4,1.33.06,1.97.92,1.33,2.14,2.37,3.35,3.47.69.64,1.39,1.39,2.25,1.91,2.08,1.33,4.22,2.54,6.47,3.64,3.01,1.45,6.13,2.72,9.36,3.53,2.6.64,5.14,1.27,7.8,1.56,2.6.23,5.2.52,8.09.52ZM1.57,46.96c-.12.69.12,1.62.23,2.54.17,1.56.52,3.06.75,4.57.29,2.43.92,4.8,1.68,7.11.69,2.14,1.56,4.22,2.49,6.3,1.16,2.54,2.49,4.97,4.04,7.28,2.02,2.95,4.33,5.72,6.99,8.09,1.1.98,1.21,1.33,2.31-.17.12-.17.29-.29.46-.46,1.16-1.21,2.25-2.37,3.41-3.58.29-.29.35-.52,0-.87-.69-.64-1.33-1.33-1.97-2.08-1.62-1.79-3.06-3.7-4.45-5.72-2.2-3.24-4.04-6.7-5.32-10.4-.29-.81-.64-1.56-.87-2.43-.35-1.33-.58-2.72-.92-4.04-.35-1.56-.69-3.12-.69-4.74,0-1.5-.12-2.95-.06-4.45.12-2.14-.12-4.28.29-6.42.52-2.77.75-5.66,1.91-8.32.06-.12,0-.35-.06-.46-.06-.12-.23-.12-.35,0-1.16.75-2.43,1.33-3.64,2.08-.58.35-.81.23-1.21-.12-.81-.87-1.68-1.68-2.49-2.54-.4-.4-.69-.35-.81.23-.06.17-.12.29-.17.46-.23,1.79-.75,3.58-1.04,5.37-.46,3.01-.69,5.95-.87,9.02.12,1.22.41,2.31.35,3.76ZM111.56,43.32c.35-2.66-.23-5.32-.64-8.03-.35-2.25-1.04-4.39-1.56-6.59-.17-.58-.52-.69-.92-.29-.87.81-1.73,1.56-2.54,2.37-.35.35-.58.35-.98.06-1.16-.81-2.31-1.5-3.53-2.25-.17-.12-.29-.4-.52-.23-.29.17-.06.4,0,.58.52,1.45.81,2.89,1.16,4.39.75,3.24.98,6.59,1.16,9.88.06,1.56-.23,3.12-.12,4.74.06,1.27-.23,2.43-.4,3.64-.35,2.2-.87,4.39-1.62,6.53-.81,2.54-1.79,4.97-3.06,7.34-1.91,3.41-4.04,6.53-6.7,9.42-.98,1.04-1.97,2.02-3.01,2.95-.46.46-.52.75.06,1.16.4.23.75.58,1.1.87,1.5,1.16,3.06,2.37,4.51,3.58.64.52,1.04.17,1.45-.23,1.1-1.1,2.2-2.14,3.24-3.35,2.02-2.43,3.82-4.97,5.37-7.69,1.56-2.72,2.83-5.49,3.87-8.44.87-2.43,1.73-4.91,2.2-7.46.29-1.62.69-3.18.92-4.8.28-2.77.74-5.37.57-8.15Z"/>
      <path class="cls-1" d="M48.84,28.06c-.06.29-.29.58-.69.52-.29-.06-.69-.12-.75-.58,0-.46.4-.64.75-.64.29,0,.69.17.69.69Z"/>
      <path class="cls-1" d="M52.6,104.75c.58,0,1.21,0,1.91.23.87.29,1.27.98,1.33,1.73.06.64-.35,1.27-1.1,1.56-.4.12-.52.4-.12.75.58.46.98,1.16,1.39,1.79.29.4,0,.64-.29.58-.52-.06-1.16-.12-1.45-.75-.17-.46-.52-.87-.75-1.27-.12-.17-.29-.4-.46-.52-.29-.17-.58-.29-.92-.12s-.17.46-.17.69v1.33c0,.52-.4.69-.81.64-.35-.06-.58-.17-.52-.81.17-1.45.06-2.89.06-4.33,0-1.68-.17-1.45,1.5-1.45.11-.06.23-.06.4-.06ZM53.06,106.03h0c-.12,0-.29.06-.4,0-.52-.06-.75.12-.69.69.06.46-.06.98.69.92.35-.06.75.06,1.1-.06.35-.06.69-.23.75-.69.06-.4-.23-.64-.52-.81-.23-.11-.58-.06-.93-.06Z"/>
      <path class="cls-1" d="M22.78,108.11v-2.6c0-.46.17-.75.64-.75,1.04,0,2.14-.06,3.18.29.75.23,1.1.75,1.21,1.45.12.75-.06,1.39-.87,1.73-.4.17-.58.4-.17.81.46.46.81,1.04,1.21,1.56.17.17.17.4.06.58s-.29.23-.46.17c-.58-.12-1.1-.29-1.39-.92-.23-.52-.64-.92-.98-1.39-.29-.4-.69-.4-1.04-.29-.4.12-.29.46-.29.81,0,.29,0,.64.06.92.12.35,0,.58-.17.75-.17.17-.46.12-.69.06-.4-.12-.23-.4-.29-.64,0-.87,0-1.68,0-2.54ZM24.92,107.65h.81c.35-.06.75-.12.81-.52.12-.52-.17-.75-.64-.92-.4-.17-.75-.06-1.16-.12-.75-.12-.92.17-.92.92.05.92.75.52,1.1.64Z"/>
      <path class="cls-1" d="M61.1,110.02c.35.69.17,1.33-.58,1.33-.87,0-.69-.75-.69-1.39,0-1.45.17-2.95-.12-4.39-.06-.46.29-.81.75-.81.52,0,.81.35.75.87,0,.4-.12.81-.12,1.27,0,.17,0,.4.17.46s.29-.12.35-.23c.35-.64.98-1.04,1.39-1.68.35-.52.87-.81,1.56-.69.17,0,.4-.06.46.17s-.06.4-.17.52c-.52.52-1.04,1.1-1.62,1.62-.23.23-.29.4-.06.69.69.87,1.16,1.85,1.85,2.66.17.17.4.46.23.75-.17.29-.46.06-.69.12-1.1.12-1.27-.92-1.73-1.5-.06-.12-.06-.29-.17-.35-.29-.23-.23-.98-.87-.75-.52.17-.52.81-.69,1.33Z"/>
      <path class="cls-1" d="M37.63,108.17c.12,2.2-1.56,3.53-3.82,3.24-1.21-.17-2.43-1.91-2.25-3.12.12-.58.06-1.21.35-1.79.75-1.56,2.14-1.91,3.35-1.62,1.33.29,2.31,1.68,2.37,3.06,0,0,0,.11,0,.23ZM32.83,108.11v.46c0,1.27,1.33,2.14,2.49,1.56.81-.4,1.21-1.68.92-2.72-.23-.69-.46-1.27-1.33-1.39-1.27-.17-2.25.7-2.08,2.08Z"/>
      <path class="cls-1" d="M69.02,108.11c0-.87.06-1.73,0-2.6-.06-.4.12-.81.69-.75,1.04.06,2.08,0,3.18,0,.46,0,.87.17.87.69,0,.4-.35.64-.87.58-.64-.06-1.33,0-1.97,0-.52,0-.64.23-.64.69,0,.4,0,.81.64.75h1.97c.4,0,.58.12.58.52s-.17.58-.58.58c-.64,0-1.27.06-1.91,0s-.69.29-.69.81.06.81.69.75c.75-.06,1.45,0,2.2,0,.46,0,.58.17.64.64,0,.46-.23.52-.58.52-1.16,0-2.37.06-3.53.06-.46,0-.69-.23-.69-.75,0-.81,0-1.68,0-2.49Z"/>
      <path class="cls-1" d="M42.95,107.47v1.79c0,.69.46,1.04,1.21.98.69-.06,1.1-.46,1.04-1.1v-3.7c0-.46.23-.69.64-.69s.75.17.75.52c-.06,1.5.17,2.95-.12,4.45-.17.98-.87,1.39-1.68,1.62-.46.12-1.04.12-1.56,0-1.16-.23-1.62-.98-1.68-2.25-.06-1.16.12-2.31-.12-3.47-.12-.58.23-.87.75-.87.46,0,.87.17.81.81-.06.64-.06,1.27-.06,1.91h0Z"/>
      <path class="cls-1" d="M90.8,111.29c-.46-.12-.92-.12-1.04-.81-.06-.52-.46-.64-1.04-.69-1.1-.12-1.79.06-2.14,1.21-.12.35-.64.4-.98.23-.4-.17-.17-.46-.06-.75.64-1.73,1.27-3.41,1.97-5.14.12-.35.29-.58.75-.58.4,0,.75.12.92.58.4,1.04.87,1.97,1.21,3.01.23.75.58,1.5.92,2.2.12.52-.06.7-.52.75ZM88.26,108.74c.69,0,.87-.17.64-.64-.17-.35-.29-.64-.29-1.04,0-.23-.12-.35-.35-.35-.29-.06-.35.23-.4.35-.12.23,0,.52-.17.75-.29.69-.17.92.58.92Z"/>
      <path class="cls-1" d="M77.74,107.93v-2.43c0-.46.12-.75.64-.69.52,0,.64.23.64.69,0,1.21.06,2.49,0,3.7-.06.81.23,1.1,1.04.98.52-.06,1.04,0,1.56,0,.4,0,.58.29.52.58,0,.29-.17.64-.58.58-1.04-.12-2.02-.06-3.06-.06-.52,0-.75-.17-.75-.75.06-.87,0-1.73,0-2.6Z"/>
      <path class="cls-1" d="M29.08,92.73v-1.21c0-.17.06-.35-.17-.35-.17-.06-.29.12-.35.23-.23.52-.46,1.04-.75,1.5-.23.4-.58.64-.98.29-.17-.12-.23-.29-.12-.52.64-1.1,1.27-2.2,1.91-3.35.17-.35.4-.64.75-.58.23,0,.46.35.58.69.29.87.06,1.73.12,2.6,0,.23-.17.52.23.58.35.06.35-.29.4-.46.29-.46.52-.98.75-1.5.17-.4.46-.52.81-.29.35.23.4.46.12.87-.64,1.04-1.27,2.08-1.85,3.12-.17.29-.35.69-.69.58-.35-.12-.75-.4-.75-.92,0-.41,0-.81,0-1.28h0Z"/>
      <path class="cls-1" d="M82.14,95.45c-1.45.12-2.37-1.62-2.49-2.95-.12-1.16,1.27-2.37,2.6-2.43,1.16-.06,2.6,1.56,2.6,3.01,0,1.16-1.39,2.37-2.72,2.37ZM82.19,91.17c-.92,0-1.45.46-1.45,1.33s.87,1.97,1.56,1.97c.75,0,1.45-.69,1.45-1.45,0-.92-.75-1.85-1.56-1.85Z"/>
      <path class="cls-1" d="M71.79,99.38c-.46,0-.64-.06-.69-.4-.35-1.33-.64-2.72-1.16-3.99-.17-.4.12-.52.35-.58.98-.29,1.91-.58,2.89-.81.29-.06.46.12.58.35.17.29-.12.4-.23.46-.52.35-1.16.4-1.73.58-.35.06-.69.12-.58.58.12.4.4.69.87.46.46-.23.98-.23,1.39-.46.35-.17.52-.06.69.23.17.4-.12.52-.35.64-.58.23-1.1.35-1.68.58-.69.29-.23.64-.17.92.06.4.35.46.69.29.52-.29,1.1-.4,1.68-.52.35-.06.69.12.69.46.06.29-.23.46-.58.46-.81.06-1.45.46-2.25.64-.17.06-.35.12-.41.12Z"/>
      <path class="cls-1" d="M35.9,97.47c-1.1.06-2.37-.92-2.37-1.68,0-.35-.23-.81.35-.92.46-.06.75.35.75.69,0,.64.52.75.92.87.35.12.75.12.87-.29.12-.29-.12-.52-.35-.69-.4-.35-.81-.64-1.16-1.04-.46-.46-.64-.98-.23-1.56s.87-.98,1.68-.69c.75.23,1.5.46,1.79,1.33.12.29.29.64-.06.81-.4.23-.69-.06-.87-.4-.12-.23-.17-.52-.52-.64-.35-.17-.75-.35-.98.06-.23.35.12.64.35.81.35.29.81.46,1.16.92.35.52.4.98.12,1.5-.35.69-.81.98-1.44.92Z"/>
      <path class="cls-1" d="M60.23,97.82v-1.33c0-.29-.06-.64.35-.64s.69.29.69.69c.06.87,0,1.73,0,2.6,0,1.5-1.62,2.49-3.06,1.85-.64-.29-.98-.69-1.04-1.33,0-1.04-.29-2.02-.17-3.06,0-.35.06-.52.46-.52.35,0,.64.06.64.52v2.43c0,.75.4,1.16,1.04,1.16.75,0,.98-.29.98-1.16.12-.41.12-.81.12-1.21Z"/>
      <path class="cls-1" d="M87.69,86.32c.23,0,.35.17.4.29.17.23.12.46-.12.52-.46.23-.69.69-1.16.92-.35.17-.46.58-.12.92.29.29.58.46.92,0,.23-.29.58-.46.81-.69s.46-.35.69,0c.23.29.23.58-.12.81-.4.29-1.04.46-1.16.98-.12.58.58.81.92,1.21.35.4,0,.58-.23.87-.29.29-.52.17-.75-.06-.87-1.1-1.62-2.2-2.6-3.24-.17-.23-.17-.52.06-.69.75-.58,1.45-1.16,2.2-1.73.12-.06.18-.11.24-.11Z"/>
      <path class="cls-1" d="M43.76,95.51c-.92-.35-1.04.35-1.04.81,0,.87-.52,1.62-.52,2.49,0,.35-.29.52-.69.46-.46-.12-.46-.46-.35-.75.4-.87.23-1.85.75-2.66.29-.52.12-.92-.52-1.04-.35-.06-.81-.06-.69-.58.12-.52.64-.35.98-.29.75.17,1.45.4,2.14.58.35.12.87.17.75.69-.12.52-.64.06-.81.29Z"/>
      <path class="cls-1" d="M52.37,95.8c.58-.06,1.21.06,1.91.17.29,0,.4.12.4.4s-.12.52-.4.52h-.4c-.52-.12-.81.12-.75.64.06.92-.17,1.85-.17,2.83,0,.4-.23.69-.58.64s-.46-.29-.4-.75c.12-.98,0-2.02.17-3.06.12-.4-.17-.64-.58-.58h-.46c-.29,0-.46-.12-.46-.4s.17-.4.46-.4c.34,0,.75,0,1.27,0Z"/>
      <path class="cls-1" d="M67.11,94.99c.46,0,.69.06.69.4,0,.29-.12.52-.46.52-.81,0-1.1.23-.81,1.1.29.87.06,1.79.35,2.72.12.4-.17.64-.46.64-.35.06-.58-.23-.58-.58-.06-.81-.23-1.68-.17-2.49s-.23-.98-1.1-.87c-.35.06-.75.12-.81-.35-.06-.46.29-.52.64-.58.93-.17,1.91-.17,2.72-.52Z"/>
      <path class="cls-1" d="M23.87,91c-.29,0-.46-.17-.58-.4-.12-.17,0-.35.12-.46.87-1.04,1.73-2.02,2.54-3.18.23-.35.52-.46.92-.17.35.35.17.64-.12.92-.81.98-1.62,1.97-2.43,2.95-.11.23-.23.41-.46.35Z"/>
      <path class="cls-1" d="M46.48,99.55c.23-1.21.35-2.43.35-3.7,0-.35.23-.64.64-.58s.69.35.58.75c-.35,1.16-.35,2.37-.4,3.53-.06.4-.23.69-.58.64-.41.06-.69-.17-.58-.64Z"/>
      <path class="cls-1" d="M10.06,67.01c.75-.4,1.45-.75,2.14-1.1.29-.17.58-.17.75.12.12.23.17.58-.23.75-.81.35-1.62.81-2.43,1.16-.29.17-.64.23-.92.4-.35.23-.64.46-.92.06-.29-.35-.29-.81,0-1.16.52-.64.75-1.45,1.39-1.97.06-.06.29-.29.06-.46-.17-.17-.35-.12-.52,0-.52.35-1.04.64-1.62.92-.29.17-.58.12-.75-.23-.23-.35-.06-.64.23-.69,1.27-.46,2.43-1.27,3.7-1.68.23-.06.46-.4.64,0,.12.29.52.52.17.98-.46.69-.92,1.45-1.5,2.08-.29.23-.35.46-.18.81Z"/>
      <path class="cls-1" d="M4.05,33.66c1.1.17,2.14.35,3.18.52.17,0,.29.12.46.06.4,0,.87,0,.98.46.12.46-.35.81-.69.92-.81.23-1.5.75-2.31.87-.17.06-.46.12-.4.4.06.35.29.17.46.23.64.12,1.27.17,1.91.29.29.06.64.06.58.46s-.4.58-.75.46c-1.27-.35-2.6-.23-3.82-.58-.29-.12-.58-.06-.58-.46-.06-.35.12-.64.4-.81.64-.29,1.27-.52,1.91-.81.17-.06.35-.12.52-.17s.4-.23.4-.4c-.06-.23-.35-.23-.52-.23-.58,0-1.21.06-1.79-.17-.29-.12-.52-.35-.46-.75.06-.29.29-.29.52-.29Z"/>
      <path class="cls-1" d="M7.23,61.75c-1.45.17-2.43-1.21-2.43-2.37,0-1.73,1.16-2.54,3.01-2.66,1.27-.06,2.31,1.16,2.31,2.6,0,1.39-1.27,2.43-2.89,2.43ZM7.29,60.66h.4c1.27-.23,2.08-1.27,1.27-2.37-.52-.64-1.21-.58-1.91-.35s-1.39.87-1.33,1.39c0,.81.7,1.39,1.56,1.33Z"/>
      <path class="cls-1" d="M7.75,42.74c-.06.52-.29.75-.64.87-1.27.52-2.54.98-3.82,1.5-.29.12-.64.29-.87-.12s.12-.69.35-.75c.87-.29.87-.92.87-1.68,0-.52-.12-.87-.64-.98-.29-.06-.4-.29-.58-.52-.12-.17-.12-.4,0-.58.17-.17.29-.12.46,0,1.45.52,2.89,1.1,4.33,1.62.35.06.58.35.52.63ZM4.57,42.8c0,.29,0,.75.35.64.35-.17,1.04-.06,1.04-.64,0-.46-.64-.4-.98-.52-.4-.17-.4.23-.4.52Z"/>
      <path class="cls-1" d="M15.32,71.06c.12.52-.35.69-.58,1.04-.69.98-1.39,1.91-2.08,2.89-.12.17-.23.46-.46.23-.23-.23-.64-.46-.4-.87.52-.92.4-1.62-.35-2.31-.29-.29-.58-.17-.87-.17-.4,0-.75-.12-.75-.58s.4-.35.69-.4c1.16-.23,2.31-.52,3.47-.75.87-.11,1.33.12,1.33.93ZM14.05,71.46c0-.12-.12-.35-.29-.23-.4.29-1.1.17-1.27.75-.12.35.29.52.52.69.12.06,1.04-.98,1.04-1.21Z"/>
      <path class="cls-1" d="M7.06,47.94q0-.06-.06-.12c-.12-.46-.35-1.04.35-1.04s.46.69.52,1.1c.06.69-.06,1.39.23,2.08.17.35.06.69-.4.75-.4.06-.69-.12-.64-.58.06-.58-.23-.69-.75-.69-.92.06-1.91.06-2.83.23-.52.12-.75-.12-.81-.46-.06-.4.29-.52.69-.52,1.04-.06,2.14-.23,3.18-.29.4-.06.46-.23.52-.46Z"/>
      <path class="cls-1" d="M17.86,74.47c.29.06.46.29.58.46.17.29-.12.4-.29.52-.75.64-1.56,1.27-2.37,1.91-.46.35-.52.64-.06,1.04.29.23.58.52.81.81.23.23.35.64.06.81-.23.17-.58.12-.81-.17-.52-.64-.98-1.33-1.5-1.97-.29-.35-.17-.46.12-.69,1.04-.87,2.02-1.68,3.06-2.54.06-.06.23-.11.41-.17Z"/>
      <path class="cls-1" d="M4.28,54.88c-.35,0-.64-.12-.64-.52s.23-.52.58-.58c1.21-.23,2.49-.4,3.7-.75.29-.06.64-.12.81.29.12.35-.06.58-.4.69-1.39.4-2.78.29-4.05.87Z"/>
      <path class="cls-1" d="M106.24,62.68c-.98-.46-2.31-.69-3.58-1.16-.23-.12-.64-.12-.58-.52s.23-.75.64-.81c.87-.06,1.62-.58,2.49-.58.17,0,.46.12.52-.17.06-.35-.29-.4-.46-.4-.64-.06-1.16-.29-1.73-.46-.52-.12-.64-.46-.29-.92.12-.12.23-.23.46-.12,1.21.4,2.43.81,3.64,1.21.29.12.75.12.69.58-.06.4-.23.87-.75.92-.75.06-1.39.4-2.14.4-.29,0-.64.06-.64.4,0,.46.4.17.58.23.58.17,1.16.35,1.68.52.23.12.46.29.35.64-.11.17-.29.41-.86.23Z"/>
      <path class="cls-1" d="M107.28,40.95c-.52-.06-1.39-.23-1.79-1.16-.64-1.33-.46-2.14.35-2.95.23-.23.4-.52.81-.17.4.35.23.69-.06.92-.23.23-.35.46-.35.75-.06,1.21.4,1.62,1.85,1.5,1.45-.12,1.68-1.16,1.33-2.25-.12-.29-.35-.29-.58-.29-.23.06-.35.17-.29.46.12.35.06.64-.4.64-.4.06-.58-.23-.58-.58-.06-.4.06-.75-.12-1.16-.06-.12.12-.35.23-.46,1.16-.69,2.25-.12,2.6,1.21.12.52.4.98.23,1.56-.58,1.39-1.33,1.97-3.24,1.97Z"/>
      <path class="cls-1" d="M110.46,44.18c0,1.62-.98,2.6-2.54,2.6-1.45,0-2.89-1.21-2.77-2.49.06-1.27.98-2.54,2.77-2.54,1.5-.06,2.54.98,2.54,2.43ZM107.86,42.85c-1.16,0-1.62.52-1.68,1.56-.06.92.81,1.21,1.85,1.27.92.06,1.45-.52,1.45-1.39.06-.92-.64-1.44-1.62-1.44Z"/>
      <path class="cls-1" d="M106.47,52.16c1.62,0,2.77.98,2.72,2.37,0,1.56-.92,2.54-2.43,2.54-1.73,0-2.95-.98-2.95-2.43,0-1.39,1.15-2.49,2.66-2.49ZM107.1,55.97c.4.06.87-.29,1.1-.87.17-.58.06-1.1-.46-1.45-.46-.29-.92-.58-1.5-.52-.69.06-1.21.46-1.45,1.1-.23.58.06,1.04.46,1.39.52.29,1.04.29,1.85.35Z"/>
      <path class="cls-1" d="M96.99,74.58c.29,0,.4-.23.52-.4.35-.4.64-.81.92-1.21.23-.29.4-.12.58,0,.23.17.23.35.06.58-.35.4-.58.87-.92,1.21-.52.52.12.64.29.87.29.4.58.23.81-.12.35-.46.64-.92.98-1.39.17-.23.35-.4.69-.17.29.23.29.46.12.69-.58.81-1.21,1.56-1.79,2.31-.23.29-.46.23-.75.06-1.1-.81-2.25-1.56-3.35-2.37-.29-.17-.29-.4-.06-.64.58-.75,1.1-1.5,1.62-2.25.17-.23.4-.52.69-.29.29.23.23.52,0,.81-.35.4-.64.87-.92,1.21-.17.17-.17.4-.12.58.17.35.46.41.64.52Z"/>
      <path class="cls-1" d="M104.39,67.94c-.17,0-.35-.06-.52-.12-1.1-.46-2.14-.87-3.24-1.33-.29-.12-.75-.17-.58-.69.17-.4.58-.52.98-.35.12.06.17.12.29.12q.87.4,1.21-.52t-.64-1.39c-.35-.12-.87-.17-.58-.75.23-.52.52-.35.92-.17,1.1.46,2.25.87,3.35,1.33.4.17.64.46.46.87-.17.35-.52.29-.81.12-.06-.06-.12-.06-.23-.12-1.27-.52-1.56-.35-1.97.98-.06.23,0,.4.23.52.4.17.81.4,1.27.58.23.12.52.23.4.58,0,.18-.23.41-.58.35Z"/>
      <path class="cls-1" d="M101.32,72.56c-1.45-.06-2.66-.81-3.12-2.08-.35-1.1.64-2.72,2.08-2.83.29,0,.46.06.52.35.06.23-.06.4-.29.46-.29.12-.58.29-.81.4-.23.12-.4.35-.46.64-.17.87.29,1.39,1.5,1.91.69.29,1.27,0,1.68-.64.29-.46.06-.81-.23-1.1-.4-.4-.06-.58.17-.81.29-.23.52-.23.75.12.64.87.4,1.73-.06,2.54-.46.75-1.16.87-1.73,1.04Z"/>
      <path class="cls-1" d="M105.14,35.98c-.23-.23-.46-.52-.23-.92.29-.46.69-.75,1.04-1.1s.4-.58-.17-.75c-.46-.12-.87-.29-1.27-.52-.29-.17-.64-.58-.4-.92.17-.23.58-.06.87.06.92.23,1.73.75,2.77.69.4-.06.75-.12,1.1-.29.29-.17.58-.06.75.29.12.35,0,.69-.29.69-1.73.12-2.54,1.45-3.64,2.43-.17.23-.34.29-.52.34Z"/>
      <path class="cls-1" d="M94.97,75.39c0,.17-.06.29-.17.4-.69.58-.4,1.04.17,1.5.64.52,1.21.98,1.85,1.5.29.23.64.46.17.98s-.64.17-.92-.12c-.69-.69-1.45-1.33-2.14-1.97-.35-.35-.64-.35-.92.06-.12.17-.29.35-.52.46-.29.12-.46-.06-.58-.29-.17-.23,0-.35.12-.46.69-.81,1.45-1.56,2.14-2.37.17-.23.35-.17.52-.12.23,0,.34.23.29.41Z"/>
      <path class="cls-1" d="M110.11,49.1c0,.12.06.4,0,.69-.29,1.56-.29,1.62-2.43,1.39-.81-.06-1.62-.06-2.37-.4-.29-.12-.81,0-.69-.52.12-.46.52-.75,1.04-.64.87.17,1.79.29,2.66.52.58.12.75-.17.87-.58s.17-.81.17-1.21c0-.35.12-.46.46-.46.4,0,.46.23.35.58-.06.11-.06.29-.06.63Z"/>
    </g>
  </g>
</svg>