<svg width="324" height="369" viewBox="0 0 324 369" fill="none" xmlns="http://www.w3.org/2000/svg">
<path d="M137.683 229.667V273.922C134.997 274.073 132.372 274.48 129.821 274.223C128.896 274.125 127.609 272.541 127.391 271.462C126.821 268.337 126.489 265.174 126.398 262C126.3 259.691 125.299 258.762 123.103 258.446C118.769 257.827 114.45 257.11 110.17 256.227C107.86 255.759 106.837 256.589 106.024 258.687C104.726 262.034 103.218 265.295 101.51 268.451C101.058 269.281 99.3657 270.217 98.6058 269.96C93.0835 268.164 87.644 266.082 81.6853 263.924C82.7235 259.675 83.5963 255.307 84.9129 251.096C85.6653 248.689 85.1311 247.452 82.9643 246.335C79.4282 244.524 75.9298 242.6 72.5893 240.442C70.4827 239.076 69.1209 239.378 67.4958 241.143C64.4864 244.448 61.2136 247.572 57.9183 250.915L42.4122 238.238C44.8423 234.609 47.122 230.904 49.7101 227.418C51.4029 225.154 51.7339 223.539 49.364 221.381C46.8388 219.033 44.5691 216.423 42.5928 213.594C40.7946 211.074 39.162 210.478 36.3557 212.085C32.8121 214.107 29.0052 215.677 24.965 217.609L14.5599 200.314C17.9907 197.824 21.5343 195.115 25.2359 192.648C27.2447 191.312 27.7864 190.12 26.6879 187.773C24.9104 183.92 23.3629 179.964 22.0534 175.927C21.3011 173.716 20.1951 173.059 17.9756 173.331C13.9054 173.829 9.81255 174.085 5.43383 174.508C4.21501 168.011 3.01876 161.68 1.72471 154.829C5.52411 153.697 9.37618 152.475 13.2734 151.426C15.5305 150.815 16.343 149.834 16.1474 147.253C15.7186 141.571 15.7186 135.844 15.7863 130.132C15.7863 127.997 15.1994 127.031 13.0928 126.571C8.97743 125.665 4.9147 124.511 0.671406 123.409C1.63442 117.267 2.46954 111.396 3.59055 105.586C3.7335 104.832 5.37364 103.828 6.31409 103.828C9.76598 103.828 13.2142 104.055 16.6364 104.507C18.9988 104.832 20.2402 104.386 20.9625 101.866C22.1203 97.9196 23.5147 94.0467 25.1381 90.2686C26.1161 87.9521 25.582 86.6316 23.5356 85.3488C19.849 83.0173 16.2904 80.4819 12.3931 77.8032L22.1738 60.1842C26.2064 62.0253 30.3218 63.7306 34.3093 65.6623C36.6717 66.8243 38.2065 66.8922 39.8542 64.3494C41.9342 61.2647 44.2886 58.3755 46.8887 55.7172C48.6794 53.8308 48.9201 52.4348 47.2348 50.3145C44.4436 46.8058 41.9683 43.0556 39.2523 39.2828L54.465 26.1534C57.7979 29.3452 61.2362 32.4465 64.4262 35.7514C66.0438 37.4115 67.2551 37.4718 69.1736 36.1664C72.6721 33.7745 76.494 31.8579 79.9624 29.4358C80.4777 28.9934 80.8824 28.436 81.1437 27.8082C81.4051 27.1804 81.5158 26.4999 81.4671 25.8214C80.7674 22.1919 79.4132 18.6832 78.6683 15.0538C78.4577 14.0427 79.21 12.0808 80.0151 11.7413C85.3718 9.47756 90.8716 7.60625 96.74 5.44065C98.5757 9.21347 100.547 12.9863 102.217 16.7968C103.225 19.1209 104.617 19.4906 106.912 18.9851C112.329 17.8004 117.776 16.7214 123.253 15.8763C125.751 15.499 126.714 14.4049 126.767 12.0431C126.834 9.12292 127.067 6.20276 127.113 3.2826C127.158 1.01892 127.865 0.00780159 130.408 0.000255964C137.932 0.000255964 137.932 -0.158202 137.932 7.41006C137.932 18.4418 137.819 29.4735 138.007 40.5052C138.059 43.8102 137.412 45.0326 133.703 45.1533C94.34 46.2851 58.1139 75.6603 48.6417 113.879C38.6053 154.399 55.7064 195.643 91.3681 216.711C104.632 224.543 119.085 228.474 134.411 229.35C135.426 229.402 136.472 229.553 137.683 229.667ZM158.072 16.9402C166.002 16.1328 172.961 18.0117 179.138 23.0597C182.148 25.5045 185.518 26.8325 189.453 26.2062C191.748 25.8667 192.929 26.9608 194.012 28.9906C195.683 32.1144 198.767 32.7181 201.965 31.8654C204.974 31.0731 206.599 28.9302 206.727 25.7535C206.87 22.2297 205.132 20.0113 201.957 18.7285C198.782 17.4457 196.457 18.804 194.524 20.9922C190.928 25.0517 187.098 25.7308 182.291 22.8258C178.89 20.7658 175.564 18.57 172.111 16.6082C170.774 15.7617 169.255 15.247 167.68 15.1066C160.382 14.9557 153.084 15.1066 145.779 15.0085C143.522 15.0085 142.769 15.9291 142.837 18.1098C142.972 26.2188 143.028 34.3253 143.002 42.4293C143.002 44.4591 143.755 45.2665 145.779 45.2967C148.562 45.3419 151.346 45.5758 154.115 45.8777C176.153 48.2961 196.562 58.672 211.535 75.0701C226.508 91.4683 235.022 112.769 235.49 134.999C236.099 160.745 227.026 183.155 208.849 201.521C192.936 217.593 173.563 226.656 150.977 228.338C143.033 228.935 143.002 228.572 143.002 236.541V257.6C150.293 257.6 157.041 257.359 163.775 257.676C168.921 257.917 173.36 256.921 177.393 253.541C180.003 251.33 183.133 249.73 186.03 247.851C188.475 246.267 190.461 245.807 192.139 249.089C193.817 252.371 196.841 253.367 200.287 252.266C201.721 251.896 202.98 251.032 203.842 249.825C204.705 248.617 205.116 247.144 205.004 245.663C205.052 244.19 204.594 242.746 203.706 241.571C202.819 240.397 201.556 239.564 200.129 239.212C196.646 238.163 194.012 239.559 191.951 242.532C191.244 243.55 189.867 244.162 188.708 244.795C187.331 245.55 185.751 245.92 184.435 246.75C180.507 249.225 176.701 251.903 172.758 254.356C171.568 255.168 170.19 255.661 168.756 255.789C161.857 255.94 154.95 255.789 148.051 255.903C145.606 255.903 144.831 254.944 144.876 252.575C144.981 246.463 145.049 240.344 144.831 234.239C144.718 231.153 145.937 230.466 148.766 230.383C160.69 230.021 172.329 227.584 182.78 221.91C189.814 218.092 196.834 216.945 204.478 217.458C204.606 217.458 204.756 217.412 204.869 217.458C206.607 218.175 208.736 218.476 210 219.684C216.433 225.818 222.677 232.157 228.907 238.502C229.975 239.597 231.111 240.985 231.404 242.396C232.368 247.067 232.909 251.828 233.744 256.521C234.113 258.536 233.842 259.834 232.052 261.222C230.72 262.24 229.818 263.723 229.525 265.376C229.232 267.03 229.57 268.733 230.472 270.149C232.398 273.167 235.512 274.239 238.394 272.978C240.463 272.073 242.464 269.545 243.164 267.319C244.127 264.301 242.126 261.849 239.342 260.204C238.003 259.449 236.287 258.423 235.851 257.185C235.008 254.726 234.858 252.002 234.594 249.368C233.97 243.286 232.149 238.05 227.131 233.839C221.669 229.251 216.839 223.871 211.903 218.665C209.737 216.401 207.472 215.149 204.252 215.458C201.716 215.7 199.143 215.511 196.608 215.511C203.296 208.999 209.601 202.789 215.996 196.647C218.539 194.217 226.89 195.251 228.786 198.156C232.939 204.638 237.115 211.112 241.065 217.722C242.615 220.31 244.42 221.313 247.475 221.283C262.071 221.132 276.674 221.163 291.27 221.283C292.977 221.283 295.957 222.113 296.137 223.011C296.814 226.316 300.418 229.531 296.792 233.266C294.294 235.846 294.083 239.061 296.198 242.026C298.071 244.652 300.772 245.535 303.932 244.509C305.366 244.138 306.625 243.276 307.491 242.071C308.357 240.866 308.775 239.395 308.672 237.914C308.611 234.307 306.573 232.187 303.104 231.025C301.788 230.587 300.591 229.131 299.824 227.84C299.065 226.438 298.588 224.9 298.417 223.313C297.951 219.985 296.16 219.231 292.94 219.269C277.807 219.445 262.677 219.445 247.55 219.269C246.638 219.19 245.75 218.928 244.942 218.496C244.134 218.064 243.421 217.472 242.848 216.756C239.337 211.905 236.126 206.842 233.233 201.597C230.283 196.088 227.003 191.787 219.878 193.425C219.72 193.425 219.487 193.168 219.126 192.912C221.263 189.448 223.512 186.045 225.506 182.499C227.5 178.952 229.193 175.346 231.329 171.128C236.182 176.077 240.508 180.552 244.872 184.966C249.235 189.38 253.035 195.432 258.369 197.643C263.846 199.907 270.888 198.503 277.238 198.443C280.202 198.443 282.309 198.729 284.009 201.748C286.026 205.287 290.705 205.521 293.752 203.023C294.486 202.451 295.095 201.733 295.54 200.914C295.985 200.096 296.258 199.194 296.34 198.265C296.423 197.336 296.314 196.4 296.02 195.516C295.726 194.631 295.254 193.817 294.633 193.123C291.774 189.954 286.695 189.403 284.604 192.965C282.113 197.22 278.735 196.609 275.154 196.624C270.64 196.624 266.126 196.73 261.612 196.564C260.199 196.545 258.832 196.054 257.729 195.168C249.574 187.185 241.511 179.103 233.541 170.924C233.11 170.344 232.802 169.683 232.637 168.979C232.471 168.276 232.451 167.546 232.578 166.834C233.391 162.692 234.527 158.602 235.685 154.535C235.934 153.682 236.746 152.46 237.431 152.369C240.44 151.954 243.299 151.864 245.842 154.497C254.033 163.003 262.384 171.356 270.896 179.556C272.606 181.094 274.787 182.004 277.08 182.137C287.026 182.408 296.988 182.288 306.941 182.25C309.033 182.25 310.522 182.438 311.704 184.74C313.208 187.66 316.045 188.95 319.483 187.901C322.921 186.853 324.065 184.378 323.997 180.876C323.922 177.639 322.598 175.444 319.558 174.599C316.075 173.64 313.073 174.795 311.531 178.077C310.53 180.197 309.213 180.544 307.182 180.529C297.221 180.461 287.267 180.605 277.313 180.401C275.409 180.273 273.605 179.498 272.197 178.205C265.674 171.965 259.467 165.378 252.96 159.153C248.543 154.904 245.052 148.853 237.393 150.022C237.243 150.022 237.032 149.683 236.995 149.645V127.536C241.343 127.536 245.436 127.755 249.491 127.476C253.253 127.212 256.029 128.231 258.519 131.249C261.39 134.558 264.507 137.646 267.841 140.485C269.199 141.649 270.89 142.349 272.671 142.484C279.3 142.703 285.943 142.635 292.579 142.545C295.197 142.545 297.093 142.703 298.507 145.646C300.298 149.306 305.406 149.668 308.521 147.034C309.246 146.449 309.842 145.719 310.273 144.892C310.704 144.065 310.961 143.157 311.026 142.226C311.092 141.295 310.966 140.36 310.655 139.48C310.344 138.6 309.856 137.794 309.221 137.112C306.4 133.92 301.276 133.43 299.252 137.021C296.95 141.096 293.888 140.847 290.337 140.794C286.786 140.741 283.129 140.417 279.593 140.847C273.251 141.602 268.308 139.866 264.448 134.592C262.48 132.077 260.205 129.821 257.677 127.876C256.314 126.734 254.643 126.024 252.877 125.839C247.61 125.582 242.344 125.748 237.077 125.748L232.48 105.699C237.626 105.699 242.524 105.865 247.392 105.616C249.188 105.54 250.908 104.869 252.282 103.707C259.362 96.9163 266.352 89.9894 273.115 82.8663C275.861 79.9688 278.6 78.3842 282.745 78.6936C287.764 79.0709 292.835 78.6332 297.868 78.8672C298.57 78.9624 299.246 79.1978 299.856 79.5593C300.466 79.9209 300.997 80.4014 301.419 80.9724C303.45 83.9906 306.068 85.4469 309.537 84.5716C312.87 83.7341 314.66 81.161 314.66 77.7806C314.714 76.2922 314.263 74.8295 313.382 73.6307C312.501 72.4318 311.241 71.5674 309.808 71.1782C306.279 70.0463 303.255 71.397 301.757 74.5511C300.682 76.8147 299.23 76.86 297.349 76.8147C291.375 76.8147 285.394 76.6714 279.435 76.9053C277.649 77.0114 275.949 77.7124 274.605 78.8973C269.098 84.0812 263.319 89.1066 258.572 94.9469C252.869 101.957 246.346 104.96 237.28 104.002C233.15 103.549 230.637 103.006 229.05 98.7197C227.409 94.2904 224.588 90.3063 222.278 86.1261C221.609 84.9112 220.917 83.7114 219.946 81.9986C226.085 81.9986 231.51 82.1948 236.904 81.8854C238.936 81.72 240.86 80.8994 242.389 79.5463C247.994 74.2643 253.825 69.1182 258.64 63.1572C264.772 55.5587 271.979 52.0802 281.67 53.7327C284.047 53.9969 286.447 53.9969 288.824 53.7327C291.021 53.6044 292.421 54.1552 293.572 56.3057C295.197 59.324 298.176 60.3125 301.441 59.2712C302.874 58.9036 304.137 58.0558 305.023 56.8685C305.908 55.6812 306.362 54.2259 306.309 52.7442C306.309 49.4392 304.677 47.0472 301.584 46.1418C298.244 45.1608 295.061 45.9003 293.451 49.2808C292.361 51.5444 290.811 51.8387 288.666 51.8161C282.7 51.7331 276.719 51.6123 270.76 51.8991C268.73 52.0437 266.8 52.8371 265.253 54.1628C260.468 58.6147 255.999 63.3986 251.365 67.926C247.309 71.9327 243.841 77.441 238.936 79.418C233.895 81.4553 227.447 79.9084 221.631 80.1725C219.096 80.2857 217.606 79.2293 215.891 77.5014C210.489 72.0535 204.801 66.8847 199.226 61.5952C198.812 61.2028 198.474 60.7275 197.721 59.8748C198.536 59.7533 199.359 59.7078 200.182 59.739C214.943 62.2894 226.8 56.6302 237.867 47.3868C241.96 43.9686 244.42 40.8221 244.819 35.4043C245.165 30.7713 244.744 25.5422 250.981 23.0597C254.321 21.7317 254.148 16.4271 251.613 13.6428C250.412 12.2811 248.731 11.4411 246.924 11.3003C245.117 11.1595 243.326 11.7289 241.93 12.8882C239.048 15.333 238.168 20.1924 241.05 22.4259C244.315 24.9612 243.848 27.5795 243.638 30.9675C243.164 38.4377 240.252 43.4253 233.902 48.1564C224.28 55.3248 214.665 59.3843 202.537 58.1242C197.074 57.5583 192.086 57.015 187.128 54.2231C175.151 47.4924 162.06 44.2931 148.352 43.4555C147.155 43.3876 145.049 42.1803 145.026 41.4559C144.786 33.5179 144.876 25.5648 144.876 17.0458C149.608 17.0156 153.882 17.3703 158.072 16.9402ZM242.532 359.942C242.893 363.843 246.06 367.352 249.732 367.955C252.704 368.453 254.404 367.887 254.306 364.182C254.058 355.286 254.254 346.382 254.193 337.478C254.148 331.774 250.77 327.563 245.105 327.397C233.443 327.058 221.782 327.035 210.098 327.397C203.823 327.586 200.829 331.48 200.821 337.878C200.821 345.318 200.821 352.758 200.821 360.198V367.487C207.796 368.597 211.625 365.518 212.144 358.84C212.28 357.029 211.813 354.954 214.762 354.969C223.791 355.014 232.774 354.969 242.276 354.969C242.374 357.037 242.396 358.478 242.532 359.942ZM214.823 345.922C213.935 345.922 212.565 344.473 212.31 343.462C211.937 341.775 211.937 340.026 212.31 338.339C212.475 337.471 213.581 336.143 214.281 336.135C223.52 335.984 232.759 336.03 242.238 336.03V346.035C232.819 345.997 223.821 346.065 214.823 345.884V345.922ZM187.85 337.546C187.85 331.51 184.721 327.526 178.679 327.36C167.153 327.028 155.604 327.088 144.071 327.314C138.88 327.42 134.877 331.087 134.809 335.434C134.651 345.386 134.764 355.346 134.696 365.307C134.696 367.382 135.532 368.083 137.548 368.053C139.684 367.985 141.722 367.137 143.28 365.669C144.837 364.2 145.806 362.212 146.004 360.078C146.125 358.568 146.004 356.991 146.004 355.014C155.033 355.014 163.482 355.15 171.931 354.947C175.241 354.864 176.595 355.626 176.663 359.255C176.791 365.563 180.816 368.514 187.828 367.601L187.85 337.546ZM174.082 336.135C174.902 336.135 175.82 337.516 176.445 338.399C176.761 338.852 176.528 339.689 176.535 340.346C176.58 346.005 176.573 346.013 171.02 346.013C162.85 346.013 154.671 346.013 146.283 346.013V335.992C155.815 335.992 164.949 335.932 174.082 336.098V336.135ZM125.315 143.737C129.31 138.689 133.011 133.331 140.151 133.648C147.05 133.958 150.639 139.33 155.033 145.171C153.528 119.651 152.196 95.4751 140.031 72.8759C129.152 86.6693 123.629 128.993 125.315 143.737ZM305.625 354.305C297.83 347.514 290.028 340.678 282.301 333.811C277.253 329.344 271.43 328.258 264.997 329.367V367.691H276.779V340.052C278.374 341.342 279.322 342.044 280.202 342.821C287.553 349.34 294.956 355.799 302.224 362.439C307.385 367.133 313.216 369.019 320.326 367.638V329.503C312.802 328.243 309.04 331.246 308.98 338.331C308.935 344.149 308.98 349.966 308.98 356.871C307.22 355.558 306.384 354.969 305.625 354.305ZM77.916 348.503C77.8708 347.416 77.0357 345.53 76.4113 345.484C73.5102 345.198 70.5891 345.175 67.6839 345.416C67.1272 345.416 66.1792 346.616 66.1792 347.265C66.0739 354.381 66.1115 361.489 66.1115 368.966H74.9592C86.9969 368.966 99.0948 369.079 111.163 368.891C118.408 368.785 121.944 365.012 121.967 358.01C121.967 352.562 121.967 347.122 121.967 341.674C121.967 333.562 118.551 330.016 110.455 329.971C96.913 329.903 83.3706 329.933 69.8733 329.971C68.7523 329.971 67.6162 330.182 66.1115 330.325C67.8043 334.362 71.0018 335.773 74.3874 336.15C79.5035 336.716 84.6947 336.724 89.8559 336.799C96.4465 336.89 103.045 336.799 109.869 336.799V361.904H77.9912C77.9912 357.195 78.089 352.841 77.916 348.503ZM10.7154 338.256C10.6702 333.532 8.57116 331.072 4.12473 330.114C1.38615 329.525 -0.0583813 330.114 0.00180735 333.434C0.167326 342.059 0.00180735 350.698 0.00180735 359.331C0.00180735 365.458 2.50716 368.627 8.58621 368.77C20.7844 369.057 32.9852 369.057 45.1884 368.77C51.433 368.627 54.6456 364.711 54.6832 358.402C54.6832 352.826 54.6832 347.25 54.6832 341.674V330.355C46.8963 329.352 43.0141 332.491 42.9088 339.493C42.8034 346.888 42.9088 354.29 42.9088 361.858H10.738C10.738 353.656 10.7981 345.96 10.7154 338.256ZM135.697 150.271C132.808 150.105 131.98 151.313 132.161 154.044C132.605 160.669 132.567 167.34 133.327 173.919C134.26 182.076 135.727 190.173 137.157 198.262C137.382 199.499 138.661 200.525 139.474 201.68C140.407 200.54 141.912 199.522 142.182 198.247C143.619 192.06 144.721 185.801 145.485 179.496C146.426 170.026 146.779 160.496 147.419 150.354C142.814 150.317 139.248 150.468 135.697 150.271ZM155.311 115.003C155.176 115.214 154.927 115.441 154.942 115.645C155.67 125.288 156.422 134.929 157.199 144.567C157.284 145.227 157.544 145.852 157.952 146.378C161.631 151.335 165.347 156.27 169.169 161.348C171.156 149.509 164.053 119.591 155.311 115.003ZM123.065 114.709C112.697 128.593 110.079 144.665 109.808 161.99C114.119 156.308 118.032 151.23 121.846 146.053C122.32 145.404 122.177 144.273 122.252 143.36C122.92 135.286 123.582 127.212 124.239 119.138C124.344 117.765 124.419 116.392 124.509 115.018L123.065 114.709Z" fill="white"/>
</svg>
